<svg id="Layer_1" data-name="Layer 1" xmlns="http://www.w3.org/2000/svg" xmlns:xlink="http://www.w3.org/1999/xlink" viewBox="0 0 189 46"><defs><style>.cls-1{fill:#097161;}.cls-2{fill:url(#linear-gradient);}</style><linearGradient id="linear-gradient" x1="73.7" y1="42.78" x2="74.2" y2="42.16" gradientTransform="matrix(46, 0, 0, -46, -3375, 1981)" gradientUnits="userSpaceOnUse"><stop offset="0" stop-color="#66bc4f"></stop><stop offset="1" stop-color="#00a063"></stop></linearGradient></defs><path id="type" class="cls-1" d="M56.34,22.19s0,0,0,0a0,0,0,0,1,0,0q3.85-1,3.86-4.52a3.7,3.7,0,0,0-1.54-3.12,7,7,0,0,0-4.27-1.16A14.29,14.29,0,0,0,50,14a1.62,1.62,0,0,0-.84.64,1.86,1.86,0,0,0-.32,1.05.72.72,0,0,0,.34.63.77.77,0,0,0,.75.07,11.15,11.15,0,0,1,4.16-.8c2.29,0,3.43.84,3.43,2.52q0,3-5.1,3h-.1a1.13,1.13,0,0,0-.82,1.94,1.14,1.14,0,0,0,.82.33h.1a8.29,8.29,0,0,1,4.19.78,2.6,2.6,0,0,1,1.26,2.37,3.14,3.14,0,0,1-1,2.53,4.56,4.56,0,0,1-3,.88,10.8,10.8,0,0,1-4.12-.81.84.84,0,0,0-.77.07.69.69,0,0,0-.36.64,1.83,1.83,0,0,0,.3,1,1.53,1.53,0,0,0,.83.65,13.4,13.4,0,0,0,4.21.68,7.6,7.6,0,0,0,4.94-1.46,5,5,0,0,0,1.77-4.09c0-2.56-1.42-4.06-4.26-4.52m17.94-2.66a3.4,3.4,0,0,1-1.18,2.79,5.25,5.25,0,0,1-3.41,1,17.68,17.68,0,0,1-2.3-.18.25.25,0,0,1-.23-.25V16.22a.25.25,0,0,1,.23-.25,17.65,17.65,0,0,1,2.3-.15,5.3,5.3,0,0,1,3.43.95,3.34,3.34,0,0,1,1.16,2.76M77,19.28a5.13,5.13,0,0,0-1.79-4.2,8.15,8.15,0,0,0-5.28-1.48c-1.32,0-2.7.07-4.13.2a1.42,1.42,0,0,0-1,.53,1.61,1.61,0,0,0-.4,1.09V30.88a1.39,1.39,0,1,0,2.77,0V25.56a.21.21,0,0,1,0-.15.17.17,0,0,1,.15-.05c.73.07,1.58.1,2.58.1q7.07,0,7.06-6.18M97.88,31.93a1.16,1.16,0,0,0-.82-2H90c-.13,0-.2-.08-.2-.23V15.29a1.46,1.46,0,0,0-1.43-1.44h0a1.47,1.47,0,0,0-1.44,1.44V30.83a1.47,1.47,0,0,0,1.44,1.44h8.76a1.13,1.13,0,0,0,.82-.34m11-7.66c0,.15-.07.23-.2.23H103c-.17,0-.24-.08-.2-.23q.35-3.4,3.23-3.4,2.67,0,2.82,3.4m2.17,1.8a1.2,1.2,0,0,0,.43-1c-.12-4.11-1.92-6.16-5.42-6.16a5.56,5.56,0,0,0-4.4,1.72,7.43,7.43,0,0,0-1.53,5.1,7,7,0,0,0,1.7,5.1,6.54,6.54,0,0,0,4.86,1.71,13.38,13.38,0,0,0,2.82-.3,1.36,1.36,0,0,0,.78-.5,1.33,1.33,0,0,0,.31-.86.76.76,0,0,0-.33-.63.81.81,0,0,0-.71-.1,8.08,8.08,0,0,1-2.62.43q-3.84,0-4.14-3.88a.18.18,0,0,1,.2-.2h7a1.57,1.57,0,0,0,1.06-.4m11.76,1.54a2.69,2.69,0,0,1-1,2,3.34,3.34,0,0,1-2.31.88,2.81,2.81,0,0,1-2.41-1.19,6.07,6.07,0,0,1-.87-3.6q0-4.8,3.28-4.8a3.3,3.3,0,0,1,2.31.89,2.65,2.65,0,0,1,1,2Zm2.28,4.3a1.19,1.19,0,0,0,.37-.87V20.39a1.26,1.26,0,0,0-1.23-1.24,1.24,1.24,0,0,0-.89.37,1.27,1.27,0,0,0-.4.87v.39h0a.05.05,0,0,1,0,0A6,6,0,0,0,121,19.31a5,5,0,0,0-2.12-.41A4.67,4.67,0,0,0,115,20.69a7.76,7.76,0,0,0-1.45,5,7.59,7.59,0,0,0,1.5,5,4.69,4.69,0,0,0,3.8,1.84A4.84,4.84,0,0,0,121,32.1a5.85,5.85,0,0,0,1.84-1.44.05.05,0,0,1,0,0h0a0,0,0,0,1,0,0V31a1.26,1.26,0,0,0,.41.87,1.22,1.22,0,0,0,.88.37,1.19,1.19,0,0,0,.87-.37M137.32,21a1,1,0,0,0,.31-.77,1,1,0,0,0-1.08-1,6.78,6.78,0,0,0-2.75.77,6,6,0,0,0-2,1.7s0,0-.05,0,0,0,0,0V20.46a1.33,1.33,0,1,0-2.65,0V30.88a1.39,1.39,0,1,0,2.77,0V26A4.57,4.57,0,0,1,133,22.57a5.12,5.12,0,0,1,3.57-1.25,1.21,1.21,0,0,0,.77-.34m14.17,10.91a1.25,1.25,0,0,0,.37-.91V24.45a6.71,6.71,0,0,0-1.06-4.25,4.06,4.06,0,0,0-3.35-1.3,5.52,5.52,0,0,0-4.09,1.86.05.05,0,0,1-.05,0h0a0,0,0,0,1,0,0l0-.37a1.26,1.26,0,0,0-.39-.87,1.23,1.23,0,0,0-1.34-.27,1.26,1.26,0,0,0-.77,1.14V31a1.26,1.26,0,0,0,.4.93,1.31,1.31,0,0,0,2.25-.93V24.2a3.63,3.63,0,0,1,3.28-3.28,2.27,2.27,0,0,1,2,.82,6,6,0,0,1,.56,3.09V31a1.15,1.15,0,0,0,.39.9,1.26,1.26,0,0,0,.92.38,1.22,1.22,0,0,0,.91-.38m7.12-16.17a1.37,1.37,0,0,0,0-2,1.34,1.34,0,0,0-1-.4,1.37,1.37,0,0,0-1,.4,1.37,1.37,0,0,0,0,2,1.37,1.37,0,0,0,1,.4,1.34,1.34,0,0,0,1-.4m0,16.15a1.29,1.29,0,0,0,.42-1V20.54a1.27,1.27,0,0,0-.42-1,1.35,1.35,0,0,0-1-.41,1.38,1.38,0,0,0-1,.41,1.29,1.29,0,0,0-.41,1V30.88a1.31,1.31,0,0,0,.41,1,1.37,1.37,0,0,0,1,.4,1.34,1.34,0,0,0,1-.4m15.66,0a1.24,1.24,0,0,0,.38-.91V24.45a6.77,6.77,0,0,0-1.06-4.25,4.09,4.09,0,0,0-3.36-1.3,5.49,5.49,0,0,0-4.08,1.86s0,0-.05,0a0,0,0,0,1,0,0l0-.37a1.29,1.29,0,0,0-.4-.87,1.23,1.23,0,0,0-2.1.87V31a1.22,1.22,0,0,0,.39.93,1.35,1.35,0,0,0,1.88,0,1.32,1.32,0,0,0,.38-.93V24.2a3.63,3.63,0,0,1,3.28-3.28,2.24,2.24,0,0,1,2,.82,6,6,0,0,1,.56,3.09V31a1.23,1.23,0,0,0,.39.9,1.29,1.29,0,0,0,.92.38,1.22,1.22,0,0,0,.91-.38m12.08-4.79a3.19,3.19,0,0,1-3.15,3.15,2.7,2.7,0,0,1-2.31-1.18,6.25,6.25,0,0,1-.84-3.61q0-4.55,3.15-4.54a3.19,3.19,0,0,1,3.15,3.15ZM189,31.39v-11a1.24,1.24,0,0,0-1.23-1.24,1.26,1.26,0,0,0-.89.37,1.22,1.22,0,0,0-.39.87v.39h0a.05.05,0,0,1-.05,0,6,6,0,0,0-1.84-1.45,5,5,0,0,0-2.12-.41,4.42,4.42,0,0,0-3.71,1.71,7.8,7.8,0,0,0-1.34,4.85,7.9,7.9,0,0,0,1.42,5,4.43,4.43,0,0,0,3.63,1.79,5.2,5.2,0,0,0,3.83-1.61.09.09,0,0,1,.06,0,0,0,0,0,1,0,0s0,0,0,0v.85a5.53,5.53,0,0,1-.87,3.47,3.36,3.36,0,0,1-2.79,1.07,9.88,9.88,0,0,1-2.7-.37.78.78,0,0,0-.74.11.72.72,0,0,0-.34.64,1.38,1.38,0,0,0,.3.9,1.26,1.26,0,0,0,.78.49,13.58,13.58,0,0,0,2.7.26,6.32,6.32,0,0,0,4.77-1.63A7.19,7.19,0,0,0,189,31.39"></path><path id="symbol" class="cls-2" d="M15.25,22.13A7.48,7.48,0,0,0,11,31.69a7.2,7.2,0,0,0,13.4.47,7.48,7.48,0,0,0,.2-5.67,7.32,7.32,0,0,0-3.79-4.16,7.11,7.11,0,0,0-5.56-.2m11-5.81a8.68,8.68,0,0,0-5.08,5.36,8,8,0,0,1,4.11,4.55,8.25,8.25,0,0,1-.1,5.95,8.34,8.34,0,0,0,7,.51,8.81,8.81,0,0,0,5-11.25,8.58,8.58,0,0,0-4.46-4.89,8.28,8.28,0,0,0-6.53-.23M22.6,8.46a6.49,6.49,0,0,0-1.42,11.29A9.34,9.34,0,0,1,26,15.6,9.08,9.08,0,0,1,31,15.19a6.48,6.48,0,0,0-.34-3,6.33,6.33,0,0,0-5.91-4.18,6.17,6.17,0,0,0-2.2.41m-19,14.62A19.39,19.39,0,1,1,9.31,36.79,19.38,19.38,0,0,1,3.63,23.08M0,23A23,23,0,1,0,23,0,23,23,0,0,0,0,23"></path></svg>