<?xml version="1.0" encoding="utf-8"?>
<!-- Generator: Adobe Illustrator 25.0.0, SVG Export Plug-In . SVG Version: 6.00 Build 0)  -->
<svg version="1.1" id="Layer_1" xmlns="http://www.w3.org/2000/svg" xmlns:xlink="http://www.w3.org/1999/xlink" x="0px" y="0px"
	 viewBox="0 0 2560 880" style="enable-background:new 0 0 2560 880;" xml:space="preserve">
<style type="text/css">
	.st0{fill-rule:evenodd;clip-rule:evenodd;fill:url(#Fill-1_1_);}
	.st1{fill-rule:evenodd;clip-rule:evenodd;fill:#59B547;fill-opacity:0.14;}
</style>
<g id="Atom-_x2F_-Shape-_x2F_-2">
	
		<linearGradient id="Fill-1_1_" gradientUnits="userSpaceOnUse" x1="320.8761" y1="980.3475" x2="319.8761" y2="980.4289" gradientTransform="matrix(2559.885 0 0 -878.9494 -818843.1875 862150.375)">
		<stop  offset="0" style="stop-color:#59B547"/>
		<stop  offset="0.2674" style="stop-color:#00925A"/>
		<stop  offset="1" style="stop-color:#015F4E"/>
	</linearGradient>
	<path id="Fill-1" class="st0" d="M2303,39c-98.6,50.8-129.8,101.5-246.7,103.5c-103.4,1.8-152.4,121.8-255.7,126
		c-51,2.1-101.8-16.2-152.5-10.4c-75.9,8.7-129.8,76.7-197.2,112.6c-85.1,45.4-180.5,50.3-272,19.8c-113.1-37.7-214-124-333.2-121
		c-44.8,1.1-88.7,15.2-133.5,15.4c-94.5,0.4-161.2-129.1-253.3-107.7c-94.5,22-156.1,61.1-238.7,50.8c-75.2-9.4-154.5,1.5-220,38.8
		v578c53.8,35,125.7,41.1,189.7,27.5c77.5-16.5,153.7-127.8,238.1-163.6c83.3-35.4,92.4,77.7,272.9,37.4
		c79.9-17.8,144-74.3,215.3-114.7c112.8-64,527.4-171,753.6-9.7c88.6,63.2,194.1,121.7,306.7,104.4c39.2-6,76.6-21.8,116.2-25.2
		c62.7-5.5,103.6,56.3,153.2,87.6c153.9,96.8,241.2,83.7,314.2,72.8V4.3C2471.7-5.7,2378.4,0.2,2303,39"/>
	<path id="Fill-4" class="st1" d="M2479.1,69.3c-53.7-2.4-109.5,0.5-158.7,24.1c-44.7,21.5-79.9,58-123.9,80.6
		c-49.9,25.6-108.9,24.8-161.7,9.2c-65.3-19.2-129.6,87.5-213.1,111.4c-65.6,18.7-139.7-46.5-177.3-45c-79.2,3-104,23.8-137.7,50.8
		c-53.5,42.8-86.9,75.2-188.9,100.3c-135.8,33.4-201.4-105-339.8-124.9c-132.2-19-259,75.4-392.2,65.6
		c-105.6-7.7-194.4-78.7-292.8-117.6c-63.4-25-132.7-52.1-200.8-49c-26.9,1.2-59.9,11.9-92,29v539.3c54.2,10.5,107.7,13.2,136.9,0.4
		c90-39.7,214.6-180.3,284.5-173.4c111.7,11,190.3,114.2,293.5,158.2c29.5,12.6,62.5,20.3,93.8,13.4c44.6-9.8,77.3-46.1,111.2-76.6
		c139.2-125.2,361.6-148.9,528.4-154.8c0,0,133.7-12.5,306.4,109.6c170.5,120.6,189.5-170,366.5-70.4
		c78.8,44.3,91.7,221.9,438.7,270.2V71.1C2532.9,70.4,2505.9,70.5,2479.1,69.3"/>
</g>
</svg>
