<?xml version="1.0" encoding="UTF-8"?> <!-- Generator: Adobe Illustrator 24.2.0, SVG Export Plug-In . SVG Version: 6.00 Build 0) --> <svg xmlns="http://www.w3.org/2000/svg" xmlns:xlink="http://www.w3.org/1999/xlink" version="1.1" id="award" x="0px" y="0px" viewBox="0 0 770 440" style="enable-background:new 0 0 770 440;" xml:space="preserve"> <style type="text/css"> .st0{fill:#D6E9BD;} .st1{fill:#1C81C5;} .st2{fill:#087262;} .st3{fill:#055245;} .st4{fill:#67BD50;} .st5{fill:#025F4F;} .st6{fill:#95CA59;} .st7{fill:#5FAD6E;} .st8{fill:#025346;} .st9{fill:#754D29;} .st10{fill:#AE5F29;} .st11{fill:#FFFFFF;} .st12{fill:#CED6D7;} .st13{fill:#505E68;} .st14{fill:#EBF4FB;} .st15{fill:#DCE3EA;} .st16{fill:#BACBE5;} .st17{fill:#60AD6E;} .st18{fill:#96CA59;} .st19{fill:#0E3855;} .st20{fill:#D1EBFA;} .st21{fill:#097363;} .st22{fill:#F58458;} .st23{fill:#D6644B;} .st24{fill:#F8CC56;} .st25{fill:#F4BC22;} .st26{fill-rule:evenodd;clip-rule:evenodd;fill:#FFFFFF;} .st27{fill:#D6634A;} .st28{fill:#921D1D;} .st29{fill:#F58457;} .st30{fill:#1B81C4;} .st31{fill:#5A969C;} .st32{fill:#FFCA25;} </style> <g> <path class="st0" d="M663.3,308.8c30.9-97.4-69.7-216.3-224.8-265.5s-323.8-14.1-336.8,87.2c-6.1,47.7,38.4,185,175.4,272.8 S632.4,406.2,663.3,308.8z"></path> <path class="st1" d="M564,220.6c0,0,17.2,7,30.1,26.6s-3.6,29.8-39.1,69.9c-35.5,40.1-54.3,114.2-54.3,114.2L417.8,365 c0,0,64.2-113,76.1-133.5C505.7,211.1,543.5,208.8,564,220.6z"></path> <path class="st2" d="M215.5,290c-3.8-4.6-5.3-10.8-3.9-16.6l-16.8,13.5c6-0.1,11.7,2.6,15.4,7.4c6.4,7.9,5.9,18.9-1.1,24.5 l30.6-24.6C232.6,299.8,221.8,297.9,215.5,290z"></path> <rect x="206.3" y="305.9" transform="matrix(0.7796 -0.6263 0.6263 0.7796 -143.3973 209.4985)" class="st3" width="39.2" height="5.1"></rect> <rect x="199.6" y="308.8" transform="matrix(0.7796 -0.6263 0.6263 0.7796 -146.924 215.1849)" class="st4" width="65.3" height="15"></rect> <polygon class="st5" points="274,305 212.1,354.7 208.4,345.1 264.6,300 "></polygon> <polygon class="st3" points="127.2,185.6 176.6,208.6 223.5,181 216.9,235 257.7,271.1 204.2,281.5 182.5,331.4 156.1,283.8 101.9,278.6 139,238.8 "></polygon> <polygon class="st6" points="217.9,190.7 177,214.8 178.7,250.5 "></polygon> <polygon class="st7" points="178.6,249.6 176.8,213.9 133.8,193.9 178.6,249.6 "></polygon> <polygon class="st7" points="178.6,249.6 212,236.9 217.7,189.8 178.6,249.6 "></polygon> <polygon class="st6" points="197.2,277 243.8,267.9 174.9,249.2 "></polygon> <polygon class="st7" points="177.9,250.3 177.9,250.3 246.9,269 211.3,237.6 "></polygon> <polygon class="st7" points="182,320.9 200.9,277.4 178.6,249.6 "></polygon> <polygon class="st4" points="144.1,240.2 111.8,274.9 178.6,249.6 "></polygon> <polygon class="st6" points="178.6,249.6 133.8,193.9 144.1,240.2 178.6,249.6 "></polygon> <polygon class="st7" points="178.6,249.6 111.8,274.9 159,279.4 178.6,249.6 "></polygon> <polygon class="st6" points="178.6,249.6 159,279.4 182,320.9 178.6,249.6 "></polygon> <path class="st8" d="M629.5,148.3c1-8.4,2.1-16.7,2.5-25.1c1-21.8-7.7-64.7-42.3-57.9c-12.3,2.4-22.3,13-34.8,13.1 c-15.2,0-26.2-10.6-41.6-2.2c-17.6,9.6-25.4,24.2-28.6,41.8c-2.8,15.5,4.9,38.1-6.9,51.3c-5.6,6.1-14.5,8.8-20.9,14.2 c-22.6,19.3,1.8,41.7,24.4,44.5c13.9,1.7,28.1-1.1,41.8-4.5c6.7-1.6,13.6-3.3,20.5-2.7c18.8,1.5,31,14.1,50.3,5.3 c24.7-11.2,33.4-34.6,34-57.4C628,161.9,628.7,155.1,629.5,148.3z"></path> <path class="st9" d="M560,198c-2.3,5.7-1.5,12.1,2.2,17c6.3,8.6,19.2,14.2,3.2,23.5c-20.3,11.9-37.9-7.4-37.9-7.4s13.8-8.3,9.2-20 c-4.6-11.7-21.8-21.7-6.5-18.9S561.5,189.2,560,198z"></path> <path class="st10" d="M581.1,148.9c1.2,0.9,2.5,1.8,3.9,2.6c19.6,12.7,11.8,27,3.2,45.4c-12.7,27.2-53.2,18.5-53.2,18.5 c-17.8-4.8-27.6-21.2-24.8-37.1c1.5-8.5,1.2-13.6,10.9-19.4c12-7.1,33.9-15.5,37.5-28.5c0.5-1.7,0.4-5.8,3.3-6.1l0,0l0,0 C565.2,134.9,571.8,142.2,581.1,148.9z"></path> <path class="st11" d="M550.2,182.2c-4.7,0.2-9.3,0.5-13.9,1c0,9,7.2,15.9,16.6,15.5c9.3-0.5,17.1-7.2,19-16.4 C564.8,181.9,557.6,181.9,550.2,182.2z"></path> <path class="st12" d="M234.5,208.2h286.7c5.8,0,10.6,4.7,10.6,10.6V415c0,5.8-4.7,10.6-10.6,10.6H234.5c-5.8,0-10.6-4.7-10.6-10.6 V218.8C223.9,213,228.6,208.2,234.5,208.2z"></path> <path class="st13" d="M234.5,209.2h286.7c5.3,0,9.6,4.3,9.6,9.6V415c0,5.3-4.3,9.6-9.6,9.6H234.5c-5.3,0-9.6-4.3-9.6-9.6V218.8 C224.9,213.5,229.2,209.2,234.5,209.2z"></path> <rect x="239.9" y="223" class="st14" width="275.9" height="176.1"></rect> <rect x="172.3" y="413.7" class="st15" width="410.9" height="12"></rect> <path class="st16" d="M173,425.8c4.8,5.1,13.8,7.2,20,7.2h369.8c6.2,0,15.1-2,20-7.2H173z"></path> <path class="st16" d="M349.9,413.7v1.3c0,2.4,1.9,4.3,4.3,4.3l0,0h47.2c2.4,0,4.3-1.9,4.3-4.3l0,0v-1.3H349.9z"></path> <path class="st1" d="M602.7,259.5c0,0-38.4,57.4-61.8,63.2c-23.4,5.8,2.2-25.9-6.3-27.1c-8.4-1.2,25.1-35.5,37.4-39.9 C584.3,251.2,595,246.1,602.7,259.5z"></path> <path class="st10" d="M524.3,326.9c0,0-11.7-62.2-11.7-69.1c0-6.9-4.5-20.4,6.4-6c10.7,14.3,21.7,51,25.5,62 C548.1,324.8,528.4,332,524.3,326.9z"></path> <path class="st10" d="M522.3,268.3c-0.1-4.9-1-9.7-2.4-14.4c-2.5-8-13.4-12.1-15.9-16c-2.4-3.9-17.1-16.9-18.8-18.2 c-1.7-1.3-2.3,0.7,2.6,6.4s11,13.8,11,13.8l-11.7-7.5l-11-1.9c0.3,2.3,1.9,4.3,4.2,5c2.1,0.8,4.3,1.5,6.5,1.9l9.7,7.6l-11.9-1.8 l-13-3c0,0-0.4,6.2,10.5,7.1c5.9,0.5,12.8,6.5,12.8,6.5l-9.1-0.2l-6.9-0.6c0,0-2,3.7,3.1,4.7c7.9,1.5,13.6,2.8,13.6,2.8 s9.6,8.7,17.1,9.7"></path> <path class="st17" d="M382.5,0h69.8c9.8,0,17.8,8,17.8,17.8v69.8c0,9.8-8,17.8-17.8,17.8h-69.8c-9.8,0-17.8-8-17.8-17.8V17.8 C364.8,8,372.7,0,382.5,0z"></path> <polygon class="st17" points="447.3,123.4 447.3,96.5 417.5,96.5 "></polygon> <path class="st11" d="M400.4,39.6c3.9-3.9,10.3-3.9,14.2,0c0,0,0,0,0,0L417,42l2.4-2.4c3.9-3.9,10.3-3.9,14.2,0 c3.9,3.9,3.9,10.3,0,14.2l-2.4,2.4l0,0L417,70.4l-14.2-14.2l0,0l-2.4-2.4C396.5,50,396.5,43.6,400.4,39.6 C400.4,39.7,400.4,39.6,400.4,39.6z"></path> <path class="st8" d="M265.2,84.9c12,6.2,19,19.2,17.6,32.7c13.6-12,15-32.8,3-46.5s-32.8-15-46.5-3c-6.2,5.5-10.1,13.1-11,21.3 C238.5,80.4,253.1,78.6,265.2,84.9z"></path> <path class="st8" d="M283.1,68.4l-11,21.3c7.8,7.1,11.8,17.4,10.7,27.9c13.6-12,15-32.8,3-46.4C285,70.2,284.1,69.3,283.1,68.4 L283.1,68.4z"></path> <path class="st18" d="M263.3,88.6c3.5,1.8,6.7,4.1,9.5,6.9c9.9-7.3,19.3-18.4,26.5-32.2C310.5,41.5,313,18.8,307,3.9 c-15.5,3.8-32.6,19-43.9,40.8c-7.1,13.8-10.7,27.9-11,40.2C256,85.6,259.7,86.8,263.3,88.6z"></path> <path class="st17" d="M307,4h-0.2l-43.7,84.7h0.1c3.5,1.8,6.7,4.1,9.5,6.9c9.9-7.3,19.3-18.4,26.5-32.2 C310.5,41.5,312.9,18.8,307,4z"></path> <path class="st8" d="M296.3,24.7c4.5,2.4,8.9,4.8,13.1,7.3c1.5-10.7,0.7-20.4-2.4-28.1c-8,1.9-16.4,6.9-24.3,14.3 C287.2,20.2,291.8,22.3,296.3,24.7z"></path> <path class="st8" d="M306.9,4l-10.7,20.6h0.1c4.5,2.4,8.9,4.8,13.1,7.3c1.5-10.7,0.7-20.4-2.4-28.1L306.9,4z"></path> <path class="st8" d="M277.1,61.8c-4.3,2.7-10,9.7-14.7,18.9c-4.7,9.1-7.2,17.8-6.9,22.9c4.3-2.7,10-9.7,14.7-18.9 S277.4,66.9,277.1,61.8z"></path> <path class="st19" d="M276.9,62l-21.4,41.3v0.2c4.3-2.7,10-9.7,14.7-18.9s7.2-17.8,6.9-22.9L276.9,62z"></path> <path class="st8" d="M281.1,54.1c-5.6-2.9-7.8-9.8-4.9-15.4c2.9-5.6,9.8-7.8,15.4-4.9c5.6,2.9,7.8,9.8,4.9,15.4c0,0,0,0,0,0 C293.6,54.8,286.7,57,281.1,54.1z"></path> <path class="st11" d="M290,36.9c-3.9-2-8.7-0.5-10.7,3.4c-2,3.9-0.5,8.7,3.4,10.7c3.9,2,8.7,0.5,10.7-3.4c0,0,0,0,0,0 C295.4,43.7,293.9,38.9,290,36.9C290,36.9,290,36.9,290,36.9z"></path> <path class="st8" d="M291.6,33.8h-0.1l-1.6,3.1h0.1c3.8,2.1,5.2,7,3.1,10.8c-2,3.7-6.6,5.1-10.4,3.3h-0.1l-1.6,3.1h0.1 c5.6,3,12.5,0.9,15.5-4.7c3-5.6,0.9-12.5-4.7-15.5C291.8,33.9,291.7,33.8,291.6,33.8L291.6,33.8z"></path> <path class="st20" d="M293.4,47.6c2-3.9,0.5-8.7-3.4-10.7h-0.1L282.6,51h0.1C286.6,53,291.4,51.5,293.4,47.6z"></path> <path class="st21" d="M173.9,99.4L159,90.9c-6.5-3.6-13.7-2.9-16.2,1.4l-7.6,13.2c-2.4,4.3-2.2,8.8,4.3,18.2 c3.5,5.2,7.6,10,12.3,14.3L173.9,99.4z"></path> <path class="st8" d="M173.9,99.4l14.9,8.6c6.3,3.8,9.4,10.4,6.9,14.7l-7.6,13.2c-2.5,4.3-6.5,6.3-17.8,5.4 c-6.3-0.4-12.5-1.5-18.5-3.3L173.9,99.4z"></path> <path class="st8" d="M159.2,124.9l-38.6-47.7l1.5-2l99,57.1l-1.1,2L159.2,124.9z"></path> <path class="st21" d="M160.4,122.9l-38.6-47.7l60.7,9.4l38.6,47.7L160.4,122.9z"></path> <path class="st22" d="M190.7,142.3c-0.5-0.3-0.7-1-0.4-1.5l6.7-11.6l-24.1-29.8c-0.5-0.4-0.6-1.1-0.3-1.6c0.4-0.5,1.1-0.6,1.6-0.3 c0.2,0.1,0.3,0.3,0.4,0.5l24.6,30.4c0.3,0.4,0.3,0.8,0.1,1.2l-7,12.3C191.9,142.4,191.3,142.6,190.7,142.3L190.7,142.3z"></path> <path class="st23" d="M196.8,129.9c-0.1-0.1-0.2-0.1-0.3-0.2l-23-28.4c-0.4-0.4-0.3-1.1,0.1-1.4c0.4-0.4,1.1-0.3,1.4,0.1 c0,0,0,0,0,0l23,28.4c0.4,0.4,0.3,1.1-0.1,1.4C197.6,130,197.2,130.1,196.8,129.9L196.8,129.9z"></path> <path class="st8" d="M180.3,103.1c-1.1,2-4.5,2.2-7.5,0.6s-4.5-4.7-3.3-6.7c1.2-2,4.5-2.2,7.5-0.6 C180,98.1,181.5,101.1,180.3,103.1z"></path> <path class="st8" d="M179.8,101.8c-0.9,1.5-4,1.4-7-0.4c-3-1.7-4.7-4.4-3.8-5.9s4-1.3,7,0.4C178.9,97.7,180.7,100.3,179.8,101.8z"></path> <path class="st22" d="M195.8,140.3c-0.9,1.6-3,2.1-4.6,1.2c-1.6-0.9-2.1-3-1.2-4.6c0.9-1.6,2.9-2.1,4.5-1.2 C196.1,136.6,196.7,138.6,195.8,140.3C195.8,140.2,195.8,140.2,195.8,140.3z"></path> <path class="st22" d="M191.1,145.3c-0.5,0.9-1.6,1.2-2.5,0.7l0,0c-0.9-0.5-1.2-1.6-0.7-2.5c0,0,0,0,0,0l3.3-5.7 c0.5-0.9,1.6-1.2,2.5-0.7l0,0c0.9,0.5,1.2,1.6,0.7,2.5c0,0,0,0,0,0L191.1,145.3z"></path> <path class="st22" d="M188.2,158.7c-0.6-1.8,0.5-4.5,3.7-11.6c0.8-1.6,0.2-3.6-1.3-4.6l0,0l0,0c-1.6-0.8-3.6-0.3-4.6,1.2 c-4.6,6.3-6.3,8.6-8.2,9c-1.3,1.3,0,4.5,3.3,6.3l0,0l0,0C184.4,161,187.7,160.5,188.2,158.7z"></path> <path class="st23" d="M187,146c0.8-1,1.9-1.6,3.1-1.7l1.4-2.4c-0.6-1.1-0.6-2.4,0-3.5c0.8-1.4,2.4-2.1,3.9-1.8 c-0.3-0.3-0.6-0.6-0.9-0.8c-1.6-0.9-3.6-0.4-4.6,1.2c0,0,0,0,0,0.1c-0.5,1-0.5,2.2,0,3.2l-1.2,2.2c-1.1,0.1-2,0.7-2.7,1.5 c-4.6,6.3-6.3,8.6-8.2,9c-0.7,0.7-0.6,2,0.2,3.3C180,155.6,181.9,153,187,146z"></path> <path class="st24" d="M348.4,258.8c-43.8,0-79.3-35.6-79.4-79.4v-33.9c0-6,4.9-10.8,10.8-10.8h21.7c6,0,10.8,4.9,10.8,10.8v4.9 c0.1,2.7,2.3,4.9,5.1,4.9h48.1V257l-2.4,0.5C358.4,258.4,353.4,258.8,348.4,258.8z M279.9,140.6c-2.7,0-4.9,2.2-4.9,4.9v33.9 c0,40.6,32.9,73.4,73.5,73.5c3.8,0,7.6-0.3,11.3-0.9v-90.8h-42.2c-6,0-10.9-4.8-11-10.8v-4.9c0-2.7-2.2-4.9-4.9-4.9L279.9,140.6z"></path> <path class="st24" d="M420.3,258.8c-5,0-9.9-0.5-14.8-1.4l-2.4-0.5V155.4h48.2c2.7,0,5-2.2,5.1-4.9v-4.9c0-6,4.9-10.8,10.8-10.8 h21.7c6,0,10.8,4.9,10.8,10.8v33.9C499.6,223.3,464.1,258.8,420.3,258.8z M409,252.1c40.1,6.3,77.6-21.2,83.9-61.2 c0.6-3.8,0.9-7.6,0.9-11.4v-33.9c0-2.7-2.2-4.9-4.9-4.9h-21.7c-2.7,0-4.9,2.2-4.9,4.9v4.9c-0.1,6-5,10.8-11,10.8H409V252.1z"></path> <rect x="376" y="272" class="st24" width="16.7" height="101.2"></rect> <rect x="376" y="290.3" class="st25" width="16.7" height="9.5"></rect> <rect x="373.1" y="269.8" class="st25" width="22.5" height="25.7"></rect> <rect x="373.1" y="289.5" class="st24" width="22.5" height="6"></rect> <path class="st24" d="M422.2,383c-7.7,0-14-6.1-14.2-13.8h-47.2c-0.3,7.7-6.5,13.8-14.2,13.8h-14.2v14.7h104.2V383H422.2z"></path> <path class="st24" d="M333.8,167.9v81.4c0,20.1,16.3,36.5,36.5,36.5l0,0h28.3c20.1,0,36.5-16.3,36.5-36.5c0,0,0,0,0,0v-81.4H333.8z "></path> <rect x="325.9" y="153.1" class="st24" width="116.9" height="15.7"></rect> <polygon class="st25" points="384.4,189.4 391,202.9 406,205.1 395.2,215.6 397.7,230.4 384.4,223.4 371,230.4 373.6,215.6 362.8,205.1 377.7,202.9 "></polygon> <rect x="333.8" y="167.9" class="st25" width="101.2" height="7.5"></rect> <polygon class="st25" points="338.9,385.5 338.9,397.8 381.4,397.8 387.3,397.8 436.4,397.8 436.4,385.5 "></polygon> <path class="st26" d="M418.3,169c0,9.1-7.4,16.5-16.5,16.5c9.1,0,16.5,7.4,16.5,16.5c0-9.1,7.4-16.5,16.5-16.5 C425.6,185.4,418.3,178.1,418.3,169"></path> <path class="st26" d="M433.9,159.8c0,4.5-3.6,8.1-8.1,8.1c0,0,0,0,0,0c4.5,0,8.2,3.6,8.2,8.1c0,0,0,0,0,0c0-4.5,3.6-8.1,8.1-8.1 C437.6,168,433.9,164.3,433.9,159.8"></path> <path class="st26" d="M412.3,153.9c0,3.5-2.8,6.3-6.3,6.3c3.5,0,6.3,2.8,6.3,6.3c0,0,0,0,0,0c0-3.5,2.8-6.3,6.3-6.3l0,0 C415.1,160.2,412.3,157.4,412.3,153.9"></path> <path class="st27" d="M617.9,335c-28,13.3-58.9,19-89.8,16.4v62.9c30.8,2.6,61.8-3.1,89.8-16.4c-5.1-8.1-10.3-16.4-15.5-25 C607.6,360.5,612.8,347.9,617.9,335z"></path> <path class="st27" d="M142.8,335c28,13.3,58.9,19,89.8,16.4v62.9c-30.8,2.5-61.8-3.1-89.8-16.4c5.1-8.1,10.3-16.4,15.5-25 C153.1,360.5,147.9,347.9,142.8,335z"></path> <path class="st28" d="M549.5,343c-6.9,3.3-14.1,6.1-21.4,8.4v62.9c0,0,8.8-1.4,22.9-8.5c14.1-7.2,19.9-13.6,19.9-13.6v-62.8 C564.4,334.8,557.2,339.4,549.5,343z"></path> <path class="st28" d="M211.2,343c6.9,3.3,14.1,6.1,21.4,8.4v62.9c0,0-8.8-1.4-22.9-8.5c-14.1-7.2-20-13.6-20-13.6v-62.8 C196.2,334.8,203.4,339.4,211.2,343z"></path> <path class="st29" d="M380.5,312.3c-64.9,0-129.7,5.7-190.8,17v62.9c61.1-11.3,125.9-17,190.8-17s129.7,5.7,190.8,17v-62.8 C510.3,317.9,445.4,312.3,380.5,312.3z"></path> <polygon class="st27" points="575.8,274.8 583.4,270.8 580.7,241.1 573.1,245.1 "></polygon> <polygon class="st30" points="568.2,278.7 575.8,274.8 573.1,245.1 565.6,249.1 "></polygon> <polygon class="st31" points="560.6,282.7 568.2,278.7 565.6,249.1 558,253.1 "></polygon> <path class="st32" d="M561.3,285.4c-1.1,0.6-2.4,0.2-3-0.9c0,0,0,0,0,0l-0.4-0.8c-0.6-1.1-0.2-2.4,0.9-3c0,0,0,0,0,0l23.6-12.4 c1.1-0.6,2.4-0.2,3,0.9l0.4,0.8c0.6,1.1,0.2,2.4-0.9,3c0,0,0,0,0,0L561.3,285.4z M584.2,269.8c-0.2-0.4-0.8-0.6-1.2-0.4 c0,0,0,0,0,0l-23.6,12.4c-0.4,0.2-0.6,0.8-0.4,1.2c0,0,0,0,0,0l0.4,0.8c0.2,0.4,0.8,0.6,1.2,0.4l23.6-12.4c0.4-0.2,0.6-0.8,0.4-1.2 c0,0,0,0,0,0L584.2,269.8z"></path> <path class="st32" d="M573.5,280c-2,1.1-2.8,3.6-1.7,5.5c1.1,2,3.6,2.8,5.5,1.7c2-1.1,2.7-3.5,1.7-5.5 C578,279.7,575.6,279,573.5,280C573.5,280,573.5,280,573.5,280z M576.7,286c-1.3,0.7-2.9,0.2-3.5-1.1c-0.7-1.3-0.2-2.9,1.1-3.5 c1.3-0.7,2.8-0.2,3.5,1.1C578.4,283.7,577.9,285.3,576.7,286C576.7,286,576.7,286,576.7,286z"></path> <rect x="572" y="277" transform="matrix(0.8852 -0.4653 0.4653 0.8852 -64.4745 299.0638)" class="st29" width="3.1" height="6.3"></rect> <path class="st32" d="M612.7,296.6c6.9,13.2,1.9,29.5-11.3,36.4c-13.2,6.9-29.5,1.9-36.4-11.3c-6.9-13.2-1.9-29.5,11.3-36.4 C589.5,278.4,605.8,283.4,612.7,296.6C612.7,296.6,612.7,296.6,612.7,296.6z"></path> <circle class="st29" cx="588.8" cy="309.2" r="23.6"></circle> <polygon class="st0" points="568.1,278.8 560.5,282.8 537.6,263.8 545.2,259.8 "></polygon> <polygon class="st31" points="575.7,274.8 568.1,278.8 545.2,259.8 552.8,255.8 "></polygon> <polygon class="st29" points="583.3,270.8 575.7,274.8 552.8,255.8 560.4,251.8 "></polygon> <path class="st32" d="M579.3,291c-10,5.3-13.9,17.7-8.6,27.7c2.5,4.7,6.7,8.3,11.8,10l12.2-39.2C589.5,287.9,584,288.5,579.3,291z"></path> <path class="st32" d="M594.7,289.5l-12.2,39.2c10.8,3.6,22.4-2.2,26-12.9c3.6-10.8-2.2-22.4-12.9-26 C595.3,289.6,595,289.6,594.7,289.5z"></path> </g> </svg> 